<svg id="visual" viewBox="0 0 960 540" width="960" height="540" xmlns="http://www.w3.org/2000/svg"
    version="1.1">
    <g fill="none" stroke="#ff00b2" stroke-width="1">
        <circle r="54" cx="452" cy="13"></circle>
        <circle r="16" cx="55" cy="166"></circle>
        <circle r="29" cx="362" cy="317"></circle>
        <circle r="44" cx="10" cy="292"></circle>
        <circle r="35" cx="862" cy="64"></circle>
        <circle r="48" cx="654" cy="41"></circle>
        <circle r="48" cx="16" cy="419"></circle>
        <circle r="38" cx="308" cy="156"></circle>
        <circle r="52" cx="754" cy="494"></circle>
        <circle r="19" cx="833" cy="367"></circle>
        <circle r="26" cx="222" cy="22"></circle>
        <circle r="29" cx="439" cy="231"></circle>
        <circle r="47" cx="559" cy="410"></circle>
        <circle r="20" cx="152" cy="433"></circle>
        <circle r="43" cx="258" cy="513"></circle>
        <circle r="33" cx="34" cy="532"></circle>
        <circle r="27" cx="187" cy="288"></circle>
        <circle r="28" cx="942" cy="164"></circle>
        <circle r="30" cx="394" cy="503"></circle>
        <circle r="33" cx="950" cy="530"></circle>
        <circle r="26" cx="161" cy="117"></circle>
        <circle r="28" cx="702" cy="144"></circle>
        <circle r="44" cx="558" cy="235"></circle>
        <circle r="36" cx="684" cy="392"></circle>
        <circle r="23" cx="789" cy="248"></circle>
        <circle r="46" cx="951" cy="355"></circle>
        <circle r="50" cx="606" cy="531"></circle>
        <circle r="37" cx="49" cy="26"></circle>
        <circle r="37" cx="506" cy="125"></circle>
        <circle r="18" cx="269" cy="391"></circle>
        <circle r="17" cx="447" cy="400"></circle>
        <circle r="45" cx="341" cy="42"></circle>
    </g>
</svg>