<svg xmlns="http://www.w3.org/2000/svg" version="1.1" viewBox="0 0 800 800">
    <defs>
        <linearGradient x1="50%" y1="0%" x2="50%" y2="100%" id="wwwhirl-grad">
            <stop stop-color="hsl(206, 75%, 49%)" stop-opacity="1" offset="45%"></stop>
            <stop stop-color="hsl(331, 90%, 56%)" stop-opacity="1" offset="100%"></stop>
        </linearGradient>
    </defs>
    <g stroke-width="2" stroke="url(#wwwhirl-grad)" fill="none" stroke-linecap="round">
        <path
            d="M37.00000251770027 435.69939441290967C50.75000289917 417.1368938979256 75.50000358581553 342.88689183798897 103.000004348755 346.5993919409858C130.50000511169446 350.31189204398265 141.5000054168703 452.07564486724016 169.00000617980973 453.5193949072945C196.5000069427492 454.96314494734884 207.50000724792503 356.21064220763316 235.00000801086446 353.5293921332466C262.500008773804 350.84814205885993 273.5000090789798 436.1118944243538 301.0000098419193 440.6493945502388C328.50001060485874 445.18689467612387 339.5000109100345 379.6406428576576 367.000011672974 375.3093927374946C394.50001243591345 370.9781426173316 405.5000127410893 417.17814389906994 433.0000135040287 419.8593939734566C460.5000142669682 422.5406440478432 471.50001457214404 383.43564296294323 499.0000153350834 388.1793930945503C526.5000160980228 392.9231432261573 537.5000164031987 451.29189484549636 565.0000171661382 442.62939460517043C592.5000179290777 433.9668943648445 603.5000182342535 349.48689202109443 631.000018997193 346.5993919409858C658.5000197601325 343.7118918608772 669.5000200653083 427.3256441805946 697.0000208282477 428.76939422064896C724.5000215911871 430.2131442607033 749.2500222778326 369.20439256812205 763.0000226593024 353.5293921332466 "
            transform="rotate(99, 400, 400)"></path>
        <path
            d="M48.00000244140632 434.61758510327076C61.33333614464971 416.61758460389217 85.3333368104878 344.61758260637794 112.00000421697456 348.21758270625367C138.6666716234613 351.81758280612934 149.33333858605602 450.4975855438336 176.00000599254278 451.8975855826742C202.66667339902952 453.2975856215147 213.33334036162427 357.5375829648208 240.000007768111 354.9375828926883C266.6666751745978 352.33758282055584 277.3333421371925 435.01758511436805 304.00000954367925 439.41758523643836C330.66667695016605 443.81758535850867 341.3333439127607 380.2575835951475 368.00001131924745 376.0575834786258C394.66667872573424 371.85758336210415 405.33334568832896 416.65758460500194 432.00001309481576 419.2575846771344C458.66668050130244 421.85758474926683 469.3333474638972 383.93758369724264 496.0000148703839 388.5375838248616C522.6666822768707 393.13758395248055 533.3333492394653 449.73758552274876 560.0000166459522 441.33758528970543C586.666684052439 432.9375850566621 597.3333510150337 351.01758278393476 624.0000184215204 348.21758270625367C650.6666858280073 345.4175826285725 661.3333527906019 426.4975848779955 688.0000201970887 427.8975849168361C714.6666876035754 429.29758495567665 738.6666882694134 370.1375833143858 752.0000219726569 354.9375828926883 "
            transform="rotate(96, 400, 400)"></path>
        <path
            d="M59.00000236511238 433.5357872377236C71.9166693901294 416.0982867539506 95.16667003516005 346.34828481885864 121.00000408519412 349.83578491561326C146.83333813522813 353.3232850123679 157.1666717552418 448.9195376645189 183.0000058052758 450.27578770214564C208.83333985530987 451.63203773977244 219.1666734753235 358.86453516610015 245.00000752535757 356.34578509622185C270.8333415753916 353.82703502634354 281.1666751954052 433.9232872484741 307.0000092454393 438.1857873667297C332.83334329547336 442.44828748498537 343.16667691548696 380.8745357767292 369.00001096552097 376.80578566384884C394.83334501555504 372.73703555096847 405.1666786355687 416.13703675502563 431.0000126856027 418.655786824904C456.8333467356368 421.1745368947823 467.16668035565044 384.43953587563385 493.0000144056845 388.8957859992648C518.8333484557185 393.35203612289564 529.1666820757321 448.1832876440929 555.0000161257661 440.04578741833217C580.8333501758003 431.90828719257144 591.1666837958139 352.5482849908668 617.000017845848 349.83578491561326C642.8333518958821 347.1232848403597 653.1666855158957 425.6695370194882 679.0000195659296 427.025787057115C704.8333536159636 428.3820370947418 728.0833542609943 371.07078550474125 741.0000212860114 356.34578509622185 "
            transform="rotate(93, 400, 400)"></path>
        <path
            d="M70.00000228881842 432.45398174278193C82.50000263560909 415.57898127461453 105.00000325983231 348.0789794019449 130.00000395341365 351.4539794955784C155.00000464699497 354.8289795892118 165.00000492442751 447.34148215580956 190.00000561800886 448.6539821922226C215.0000063115902 449.96648222863564 225.00000658902275 360.19147973798505 250.00000728260406 357.7539796703609C275.00000797618543 355.31647960273665 285.000008253618 432.82898175318564 310.0000089471993 436.95398186762657C335.00000964078066 441.0789819820675 345.00000991821315 381.49148032891634 370.0000106117945 377.55398021967727C395.00001130537584 373.6164801104382 405.0000115828084 415.6164812756549 430.0000122763897 418.053981343279C455.000012969971 420.49148141090325 465.0000132474036 384.9414804246306 490.00001394098496 389.25398054427336C515.0000146345662 393.56648066391614 525.0000149119987 446.6289821360425 550.0000156055801 438.7539819175644C575.0000162991615 430.8789816990863 585.000016576594 354.0789795684044 610.0000172701755 351.4539794955784C635.0000179637568 348.82897942275235 645.0000182411893 424.8414815315864 670.0000189347705 426.1539815679994C695.0000196283519 427.4664816044124 717.5000202525752 372.0039800657022 730.0000205993658 357.7539796703609 "
            transform="rotate(90, 400, 400)"></path>
        <path
            d="M81.00000221252448 431.37219532132656C93.08333588108879 415.0596948687647 114.83333648450457 349.80969305851744 139.0000038216332 353.0721931490298C163.1666711587618 356.33469323954216 172.83333809361326 445.7634457205866 197.0000054307419 447.0321957557859C221.16667276787052 448.30094579098517 230.833339702722 361.51844338335627 255.00000703985063 359.1621933179862C279.16667437697924 356.80594325261615 288.83334131183074 431.7346953313835 313.00000864895935 435.7221954420097C337.16667598608797 439.70969555263594 346.8333429209394 382.10844395458986 371.000010258068 378.3021938489921C395.16667759519663 374.4959437433943 404.8333445300481 415.0959448697704 429.00001186717674 417.4521949351405C453.16667920430535 419.8084450005105 462.8333461391569 385.4434440471136 487.00001347628546 389.6121941627683C511.1666808134141 393.78094427842296 520.8333477482655 445.0746957014785 545.0000150853941 437.46219549028297C569.1666824225229 429.8496952790874 578.8333493573742 355.60969321942827 603.000016694503 353.0721931490298C627.1666840316316 350.5346930786313 636.8333509664831 424.0134451171709 661.0000183036116 425.28219515237015C685.1666856407402 426.55094518756937 706.9166862441559 372.9371937001495 719.0000199127203 359.1621933179862 "
            transform="rotate(87, 400, 400)"></path>
        <path
            d="M92.00000213623053 430.29038982638485C103.6666691265685 414.5403893894286 124.66666970917683 351.5403876416036 148.00000368985275 354.6903877289949C171.33333767052864 357.8403878163861 180.666671262799 444.18539021187735 204.00000524347493 445.41039024586286C227.33333922415085 446.6353902798483 236.66667281642125 362.8453879552411 260.00000679709717 360.5703878921252C283.33334077777306 358.2953878290093 292.66667437004344 430.640389836095 316.0000083507193 434.4903899429065C339.3333423313953 438.34039004971805 348.66667592366565 382.725388506777 372.00000990434154 379.0503884048205C395.3333438850174 375.37538830286405 404.6666774772878 414.5753893903996 428.00001145796375 416.8503894535155C451.3333454386397 419.12538951663146 460.6666790309101 385.94538859611026 484.000013011586 389.97038870777686C507.33334699226185 393.99538881944346 516.6666805845323 443.5203901934281 540.0000145652082 436.1703899895152C563.3333485458841 428.8203897856023 572.6666821381544 357.14038779696585 596.0000161188304 354.6903877289949C619.3333500995063 352.24038766102393 628.6666836917767 423.185389629269 652.0000176724526 424.41038966325453C675.3333516531285 425.63538969724004 696.3333522357368 373.87038826111046 708.0000192260748 360.5703878921252 "
            transform="rotate(84, 400, 400)"></path>
        <path
            d="M103.00000205993659 429.2085919608377C114.25000237204819 414.02109153948703 134.5000029338491 353.2710898540844 157.00000355807228 356.3085899383545C179.50000418229547 359.34609002262465 188.5000044319848 442.6073423325626 211.00000505620795 443.78859236533435C233.50000568043117 444.96984239810604 242.50000593012047 364.17234015652053 265.0000065543437 361.9785900956588C287.5000071785669 359.784840034797 296.5000074282562 429.546091970201 319.0000080524794 433.25859207319786C341.5000086767026 436.9710921761947 350.50000892639184 383.3423406883587 373.00000955061506 379.79859059004355C395.5000101748383 376.2548404917284 404.5000104245276 414.05484154042335 427.00001104875076 416.2485916012851C449.500011672974 418.4423416621469 458.5000119226633 386.44734077450147 481.00001254688647 390.32859088218C503.50001317110963 394.2098409898585 512.5000134207988 441.96609231477225 535.0000140450221 434.87859211814197C557.5000146692455 427.7910919215116 566.5000149189347 358.6710900038979 589.0000155431579 356.3085899383545C611.5000161673811 353.94608987281106 620.5000164170704 422.35734177076176 643.0000170412935 423.53859180353345C665.5000176655168 424.7198418363052 685.7500182273176 374.803590451466 697.0000185394292 361.9785900956588 "
            transform="rotate(81, 400, 400)"></path>
        <path
            d="M114.00000198364263 428.126786465896C124.83333561752788 413.50178606015095 144.33333615852135 355.0017844371706 166.0000034262918 357.9267845183196C187.6666706940623 360.8517845994686 196.3333376011705 441.02928682385334 218.000004868941 442.16678685541126C239.6666721367115 443.30428688696924 248.3333390438197 365.4992847284054 270.0000063115902 363.38678466979775C291.6666735793607 361.2742846111901 300.33334048646896 428.4517864749125 322.0000077542394 432.0267865740947C343.6666750220099 435.6017866732768 352.3333419291181 383.95928524054585 374.0000091968886 380.546785145872C395.6666764646591 377.13428505119816 404.3333433717673 413.53428606105257 426.0000106395378 415.6467861196602C447.66667790730827 417.7592861782678 456.3333448144165 386.9492853234982 478.00001208218697 390.6867854271886C499.66667934995746 394.424285530879 508.33334625706556 440.41178680672186 530.0000135248362 433.5867866173742C551.6666807926067 426.7617864280265 560.3333476997147 360.2017845814355 582.0000149674854 357.9267845183196C603.6666822352558 355.6517844552037 612.3333491423641 421.52928628285986 634.0000164101345 422.66678631441783C655.666683677905 423.8042863459758 675.1666842188985 375.73678501242694 686.0000178527837 363.38678466979775 "
            transform="rotate(78, 400, 400)"></path>
        <path
            d="M125.00000190734869 427.04498860034886C135.41666886300757 412.98248821020934 154.1666693831936 356.7324866496513 175.00000329451137 359.5449867276792C195.83333720582914 362.35748680570714 204.16667077035626 439.45123894453855 225.00000468167406 440.54498897488276C245.83333859299182 441.63873900522697 254.16667215751897 366.8262369296848 275.00000606883674 364.7949868733313C295.8333399801545 362.7637368169778 304.16667354468166 427.3574886090186 325.0000074559994 430.79498870438607C345.8333413673172 434.23248879975347 354.16667493184434 384.5762374221276 375.00000884316205 381.294987331095C395.8333427544799 378.0137372400624 404.166676319007 413.0137382110763 425.0000102303248 415.0449882674298C445.83334414164256 417.0762383237833 454.1666777061697 387.4512375018894 475.0000116174875 391.04498760159174C495.83334552880524 394.638737701294 504.1666790933323 438.857488928066 525.0000130046501 432.2949887460009C545.8333469159679 425.7324885639358 554.166680480495 361.7324867883676 575.0000143918128 359.5449867276792C595.8333483031306 357.3574866669909 604.1666818676579 420.7012384243526 625.0000157789755 421.79498845469675C645.8333496902933 422.88873848504096 664.5833502104794 376.66998720278247 675.0000171661382 364.7949868733313 "
            transform="rotate(75, 400, 400)"></path>
        <path
            d="M136.00000183105476 425.96318310540715C146.00000210848728 412.46318273087326 164.00000260786584 358.46318123273755 184.00000316273093 361.1631813076443C204.00000371759597 363.8631813825511 212.000003939542 437.87318343582933 232.00000449440708 438.9231834649597C252.00000504927215 439.9731834940901 260.0000052712182 368.1531815015697 280.0000058260833 366.20318144747034C300.0000063809483 364.253181393371 308.00000660289436 426.2631831137301 328.00000715775946 429.5631832052829C348.00000771262455 432.8631832968356 356.00000793457053 385.1931819743147 376.0000084894356 382.04318188692343C396.00000904430067 378.8931817995322 404.0000092662467 412.49318273170553 424.0000098211118 414.4431827858049C444.0000103759769 416.3931828399042 452.0000105979229 387.9531820508861 472.000011152788 391.40318214660033C492.000011707653 394.8531822423145 500.00001192959905 437.30318342001567 520.0000124844642 431.0031832452332C540.0000130393292 424.7031830704507 548.0000132612753 363.26318136590515 568.0000138161404 361.1631813076443C588.0000143710055 359.0631812493835 596.0000145929514 419.87318293645075 616.0000151478165 420.9231829655812C636.0000157026815 421.9731829947116 654.00001620206 377.6031817637434 664.0000164794926 366.20318144747034 "
            transform="rotate(72, 400, 400)"></path>
        <path
            d="M146.9999864959717 424.88139286925457C156.5833200951779 411.9438925103262 173.83332057374906 360.1938910746128 192.9999877721614 362.7813911463985C212.16665497057375 365.36889121818416 219.8333218499387 436.29514318590907 238.99998904835104 437.30139321382575C258.1666562467634 438.3076432417424 265.8333231261284 369.4801413322436 284.9999903245407 367.6113912803984C304.1666575229531 365.7426412285532 311.83332440231806 425.16889287723075 330.9999916007304 428.33139296496876C350.1666587991428 431.4938930527068 357.83332567850766 385.81014178529097 376.99999287692003 382.791391701541C396.1666600753324 379.77264161779107 403.8333269546974 411.9726425111238 422.99999415310975 413.841392562969C442.1666613515221 415.71014261481423 449.83332823088705 388.4551418586718 468.9999954292994 391.761391950398C488.16666262771173 395.06764204212413 495.83332950707666 435.74889317075434 514.9999967054891 429.71139300325444C534.1666639039015 423.67389283575454 541.8333307832664 364.7938912022318 560.9999979816788 362.7813911463985C580.1666651800912 360.7688910905652 587.8333320594561 419.04514270733796 606.9999992578685 420.05139273525464C626.1666664562807 421.05764276317126 643.4166669348518 378.53639158349347 653.000000534058 367.6113912803984 "
            transform="rotate(69, 400, 400)"></path>
        <path
            d="M157.99998641967778 423.79958737431286C167.1666533406576 411.4245870309901 183.6666537984213 361.924585657699 201.99998764038094 364.39958572636357C220.33332148234058 366.8745857950281 227.66665501912445 434.7170876771998 245.9999888610841 435.6795877039027C264.33332270304373 436.64208773060557 271.6666562398276 370.8070859041285 289.99999008178725 369.0195858545374C308.3333239237469 367.23208580494634 315.6666574605308 424.07458738194225 333.99999130249046 427.09958746586557C352.3333251444501 430.12458754978894 359.6666586812339 386.4270863374781 377.99999252319355 383.5395862573695C396.3333263651532 380.6520861772608 403.6666599019371 411.452087031753 421.99999374389677 413.2395870813441C440.3333275858564 415.0270871309352 447.6666611226403 388.95708640766856 465.9999949645999 392.11958649540657C484.3333288065595 395.28208658314463 491.6666623433434 434.19458766270395 509.9999961853031 428.4195875024867C528.3333300272627 422.6445873422694 535.6666635640465 366.32458577976934 553.9999974060063 364.39958572636357C572.3333312479659 362.4745856729578 579.6666647847499 418.2170872194361 597.9999986267094 419.179587246139C616.3333324686689 420.1420872728419 632.8333329264326 379.4695861444544 641.9999998474125 369.0195858545374 "
            transform="rotate(66, 400, 400)"></path>
        <path
            d="M168.99998634338385 422.7177895087657C177.7499865861373 410.9052891810485 193.49998702309355 363.6552878701798 210.9999875086005 366.0177879357232C228.4999879941074 368.38028800126665 235.49998818831023 433.13903979788506 252.99998867381714 434.05778982337415C270.49998915932406 434.9765398488633 277.49998935352687 372.1340381054079 294.9999898390338 370.427788058071C312.4999903245407 368.72153801073404 319.4999905187435 422.9802895160483 336.99999100425043 425.86778959615697C354.49999148975735 428.7552896762656 361.49999168396016 387.04403851905977 378.9999921694671 384.28778844259244C396.49999265497405 381.5315383661251 403.4999928491768 410.93153918177677 420.9999933346837 412.6377892291137C438.4999938201907 414.34403927645064 445.4999940143935 389.45903858605976 462.9999944999004 392.4777886698097C480.4999949854073 395.49653875355966 487.4999951796101 432.64028978404815 504.99999566511707 427.12778963111344C522.4999961506239 421.61528947817874 529.4999963448267 367.85528798670146 546.9999968303338 366.0177879357232C564.4999973158407 364.180287884745 571.4999975100434 417.3890393609288 588.9999979955503 418.30778938641794C606.4999984810572 419.2265394119071 622.2499989180135 380.4027883348099 630.999999160767 370.427788058071 "
            transform="rotate(63, 400, 400)"></path>
        <path
            d="M179.9999862670899 421.6359954579158C188.33331983161702 410.3859951458042 203.3333202477658 365.38599389735776 219.99998737682003 367.6359939597801C236.66665450587425 369.88599402220245 243.33332135749595 431.5609957332676 259.9999884865502 432.43599575754297C276.6666556156044 433.3109957818183 283.33332246722614 373.46099412138454 299.99998959628033 371.83599407630174C316.6666567253345 370.210994031219 323.3333235769563 421.8859954648516 339.9999907060105 424.6359955411456C356.6666578350647 427.3859956174395 363.3333246866864 387.66099451533876 379.9999918157406 385.03599444251273C396.6666589447948 382.4109943696867 403.33332579641655 410.4109951464978 419.9999929254708 412.0359951915806C436.666660054525 413.6609952366634 443.3333269061467 389.96099457914823 459.9999940352009 392.8359946589101C476.6666611642551 395.71099473867196 483.33332801587676 431.08599572008956 499.99999514493106 425.83599557443745C516.6666622739854 420.5859954287854 523.333329125607 369.3859940083308 539.9999962546613 367.6359939597801C556.6666633837156 365.88599391122943 563.3333302353371 416.5609953171188 579.9999973643913 417.4359953413941C596.6666644934455 418.3109953656695 611.6666649095944 381.3359943398627 619.9999984741214 371.83599407630174 "
            transform="rotate(60, 400, 400)"></path>
        <path
            d="M190.99998619079594 420.55419568502C198.9166530770967 409.866695388514 213.16665347243807 367.1166942024899 228.99998724503956 369.2541942617911C244.83332101764108 371.3916943210923 251.1666545266817 429.9829459466042 266.99998829928325 430.8141959696658C282.8333220718847 431.6454459927274 289.16665558092535 374.78794441531534 304.99998935352687 373.2441943724867C320.83332312612833 371.700444329658 327.166656635169 420.791695691609 342.9999904077705 423.4041957640883C358.833324180372 426.0166958365675 365.1666576894126 388.27794478957185 380.9999914620141 385.78419472038706C396.8333252346156 383.29044465120234 403.1666587436563 409.8904453891729 418.99999251625775 411.43419543200156C434.83332628885927 412.9779454748302 441.1666597978999 390.4629448501908 456.99999357050143 393.1941949259646C472.8333273431029 395.92544500173835 479.1666608521435 429.53169593408506 494.99999462474506 424.5441957957156C510.8333283973466 419.5566956573461 517.1666619063872 370.91669430791427 532.9999956789886 369.2541942617911C548.8333294515903 367.5916942156679 555.1666629606309 415.73294555126284 570.9999967332324 416.5641955743244C586.8333305058338 417.395445597386 601.0833309011753 382.2691946228695 608.9999977874759 373.2441943724867 "
            transform="rotate(57, 400, 400)"></path>
        <path
            d="M201.999986114502 419.47238446803243C209.49998632257638 409.347384187132 222.99998669711033 368.84738306353023 237.99998711325912 370.8723831197103C252.99998752940792 372.89738317589035 258.99998769586745 428.40488471584905 273.99998811201624 429.19238473769684C288.9999885281651 429.97988475954463 294.99998869462456 376.1148832651543 309.9999891107734 374.6523832245798C324.9999895269222 373.1898831840053 330.99998969338174 419.69738447427466 345.99999010953053 422.1723845429392C360.9999905256793 424.6473846116038 366.9999906921388 388.8948836197131 381.99999110828765 386.53238355416966C396.99999152443644 384.1698834886262 402.99999169089597 409.3698841877562 417.99999210704476 410.83238422833074C432.99999252319355 412.2948842689052 438.99999268965314 390.96488367714164 453.99999310580193 393.5523837489273C468.9999935219507 396.13988382071295 474.9999936884102 427.9773847039888 489.99999410455905 423.2523845729019C504.9999945207079 418.52738444181506 510.9999946871674 372.4473831634059 525.9999951033162 370.8723831197103C540.9999955194651 369.2973830760147 546.9999956859245 414.9048843413151 561.9999961020733 415.69238436316294C576.9999965182221 416.47988438501073 590.499996892756 383.2023834617846 597.9999971008303 374.6523832245798 "
            transform="rotate(54, 400, 400)"></path>
        <path
            d="M212.99998603820805 418.3905942318798C220.08331956805608 408.8280939665849 232.8333199217826 370.57809290540547 246.99998698147868 372.49059295846445C261.16665404117475 374.4030930115234 266.8333208650532 426.82684446592884 280.9999879247493 427.57059448656287C295.16665498444536 428.3143445071969 300.83332180832383 377.44184309582823 314.99998886801995 376.06059305750784C329.166655927716 374.6793430191875 334.83332275159444 418.6030942377752 348.99998981129056 420.9405943026251C363.1666568709866 423.278094367475 368.83332369486504 389.5118434306893 382.99999075456117 387.28059336878715C397.16665781425723 385.049343306885 402.8333246381357 408.8493439671745 416.9999916978318 410.2305940054948C431.1666587575279 411.6118440438152 436.8333255814063 391.4668434849274 450.99999264110244 393.91059355272495C465.1666597007985 396.3543436205225 470.8333265246769 426.42309445472745 484.99999358437304 421.9605943309232C499.16666064406917 417.4980942071189 504.8333274679476 373.97809299973255 518.9999945276437 372.49059295846445C533.1666615873398 371.00309291719634 538.8333284112182 414.0768441122023 552.9999954709143 414.8205941328364C567.1666625306103 415.5643441534704 579.9166628843368 384.1355932815346 586.9999964141849 376.06059305750784 "
            transform="rotate(51, 400, 400)"></path>
        <path
            d="M223.9999859619141 417.3087906442867C230.6666528135358 408.30879039459745 242.66665314645485 372.30878939584034 255.99998684969822 374.1087894457782C269.3333205529416 375.90878949571606 274.66665403423895 425.24879086456815 287.99998773748234 425.94879088398847C301.3333214407257 426.6487909034087 306.6666549220231 378.76878957506176 319.99998862526644 377.4687895389955C333.33332232850984 376.16878950292926 338.6666558098072 417.5087906498354 351.99998951305054 419.7087907108706C365.33332321629393 421.90879077190573 370.6666566975913 390.1287898902251 383.9999904008347 388.0287898319643C397.3333241040781 385.92878977370344 402.66665758537545 408.32879039515234 415.99999128861884 409.62879043121853C429.3333249918621 410.9287904672848 434.66665847315954 391.9687899412727 447.9999921764029 394.26879000508217C461.3333258796463 396.56879006889164 466.6666593609436 424.86879085402575 479.99999306418704 420.6687907375041C493.33332676743044 416.4687906209824 498.6666602487278 375.5087894846187 511.99999395197113 374.1087894457782C525.3333276552146 372.7087894069376 530.666661136512 413.24879053164915 543.9999948397553 413.9487905510694C557.3333285429986 414.6487905704897 569.3333288759177 385.06878974984426 575.9999957275394 377.4687895389955 "
            transform="rotate(48, 400, 400)"></path>
        <path
            d="M234.99998588562016 416.22699087139097C241.2499860590155 407.78949063730727 252.49998637112708 374.03948970097247 264.99998671791775 375.72698974778916C277.4999870647084 377.4144897946059 282.49998720342467 423.6707410779048 294.99998755021534 424.3269910961113C307.499987897006 424.9832411143178 312.4999880357223 380.0957398689925 324.999988382513 378.87698983518044C337.49998872930365 377.6582398013683 342.49998886801995 416.4144908765928 354.9999892148106 418.4769909338133C367.4999895616013 420.53949099103374 372.49998970031754 390.7457401644582 384.9999900471082 388.77699010983866C397.4999903938989 386.80824005521913 402.49999053261513 407.80824063782745 414.9999908794058 409.0269906716395C427.49999122619647 410.2457407054516 432.4999913649127 392.47074021231526 444.9999917117034 394.62699027213665C457.49999205849406 396.78324033195804 462.4999921972103 423.31449106802125 474.999992544001 419.3769909587822C487.4999928907917 415.4394908495431 492.49999302950795 377.0394897842022 504.9999933762987 375.72698974778916C517.4999937230893 374.4144897113762 522.4999938618056 412.4207407657932 534.9999942085963 413.0769907839997C547.4999945553868 413.73324080220624 558.7499948674986 386.0019900328511 564.9999950408939 378.87698983518044 "
            transform="rotate(45, 400, 400)"></path>
        <path
            d="M245.9999858093262 415.14519109849516C251.83331930449518 407.270190880017 262.33331959579937 375.77019000610454 273.9999865861373 377.3451900498002C285.66665357647526 378.9201900934958 290.33332037261044 422.0926912912414 301.9999873629484 422.70519130823413C313.6666543532864 423.3176913252269 318.3333211494216 381.4226901629233 329.9999881397595 380.2851901313653C341.66665513009747 379.1476900998074 346.33332192623266 415.3201911033502 357.9999889165706 417.245191156756C369.66665590690855 419.17019121016176 374.3333227030438 391.36269043869123 385.99998969338174 389.525190387713C397.6666566837197 387.68769033673476 402.3333234798548 407.28769088050257 413.9999904701928 408.4251909120605C425.6666574605308 409.56269094361846 430.33332425666595 392.9726904833579 441.99999124700395 394.9851905391912C453.66665823734184 396.99769059502444 458.3333250334771 421.76019128201676 469.999992023815 418.0851911800603C481.66665901415297 414.4101910781039 486.33332581028816 378.57019008378563 497.99999280062616 377.3451900498002C509.6666597909641 376.12019001581467 514.3333265870992 411.59269099993725 525.9999935774372 412.20519101693C537.6666605677751 412.81769103392276 548.1666608590793 386.935190315858 553.9999943542483 380.2851901313653 "
            transform="rotate(42, 400, 400)"></path>
        <path
            d="M256.99998573303225 414.0633951402966C262.41665254997486 406.7508949374241 272.1666528204716 377.50089412593394 282.9999864543569 378.96339416650846C293.8333200882421 380.42589420708293 298.1666535417962 420.5146453192753 308.99998717568144 421.08339533505426C319.83332080956666 421.6521453508333 324.1666542631208 382.74964427155135 334.999987897006 381.6933942422475C345.8333215308913 380.6371442129437 350.1666549844454 414.2258951448049 360.99998861833063 416.01339519439597C371.8333222522159 417.80089524398704 376.16665570577 391.97964452762153 386.99998933965526 390.27339448028465C397.8333229735405 388.5671444329477 402.1666564270946 406.76714493787495 412.9999900609798 407.82339496717873C423.83332369486504 408.87964499648257 428.1666571484192 393.47464456909773 438.9999907823044 395.34339462094295C449.83332441618967 397.21214467278816 454.16665786974374 420.2058953107096 464.999991503629 416.7933952160357C475.8333251375143 413.38089512136185 480.1666585910683 380.1008941980664 490.99999222495364 378.96339416650846C501.83332585883886 377.8258941349505 506.166659312393 410.76464504877856 516.9999929462782 411.3333950645576C527.8333265801634 411.90214508033654 537.5833268506601 387.8683944135621 542.9999936676028 381.6933942422475 "
            transform="rotate(39, 400, 400)"></path>
        <path
            d="M267.9999856567383 412.98159155270355C272.99998579545456 406.2315913654366 281.9999860451438 379.23159061636875 291.99998632257643 380.58159065382216C301.9999866000089 381.9315906912756 305.99998671098194 418.93659171791467 315.9999869884145 419.46159173247986C325.99998726584704 419.98659174704505 329.99998737682006 384.0765907507848 339.99998765425255 383.10159072373517C349.9999879316851 382.12659069668547 353.9999880426581 413.1315915568651 363.99998832009067 414.7815916026414C373.9999885975232 416.4315916484178 377.9999887084962 392.59659098715736 387.9999889859287 391.0215909434617C397.9999892633613 389.4465908997661 401.9999893743343 406.2465913658528 411.99998965176684 407.22159139290244C421.9999899291994 408.19659141995214 425.9999900401724 393.97659102544304 435.9999903176049 395.70159107330016C445.99999059503745 397.4265911211573 449.99999070601046 418.65159171000784 459.999990983443 415.50159162261656C469.99999126087556 412.35159153522534 473.9999913718486 381.6315906829526 483.9999916492811 380.58159065382216C493.9999919267137 379.5315906246918 497.99999203768664 409.93659146822534 507.9999923151192 410.4615914827906C517.9999925925517 410.9865914973558 526.999992842241 388.80159088187173 531.9999929809572 383.10159072373517 "
            transform="rotate(36, 400, 400)"></path>
        <path
            d="M279.0000008392334 411.89979368715643C283.58333429972333 405.71229351549505 291.8333345286052 380.9622928288495 301.000001449585 382.1997928631818C310.1666683705648 383.43729289751406 313.8333351389567 417.3585438385999 323.0000020599366 417.83979385195136C332.16666898091637 418.3210438653028 335.83333574930833 385.40354295206424 345.00000267028815 384.5097929272687C354.166669591268 383.61604290247317 357.83333635965994 412.0372936909711 367.00000328063976 413.5497937329328C376.1666702016196 415.06229377489444 379.8333369700115 393.2135431687391 389.0000038909913 391.76979312868474C398.16667081197113 390.3260430886304 401.8333375803631 405.72604351587654 411.0000045013429 406.61979354067205C420.16667142232274 407.51354356546756 423.8333381907147 394.47854320383425 433.00000511169446 396.0597932477033C442.1666720326743 397.6410432915723 445.83333880106625 417.097293831352 455.00000572204607 414.20979375124335C464.1666726430259 411.3222936711347 467.8333394114178 383.16229288988467 477.0000063323977 382.1997928631818C486.1666732533775 381.2372928364789 489.83334002176946 409.1085436097181 499.0000069427492 409.5897936230695C508.166673863729 410.07104363642094 516.4166740926108 389.7347930722272 521.0000075531008 384.5097929272687 "
            transform="rotate(33, 400, 400)"></path>
        <path
            d="M290.00000076293946 410.81799582160926C294.16666754520304 405.19299566555344 301.66666775327747 382.6929950413303 310.00000131780456 383.8179950725414C318.33333488233166 384.9429951037526 321.6666683081425 415.7804959592852 330.0000018726696 416.21799597142285C338.33333543719675 416.6554959835605 341.6666688630076 386.73049515334367 350.0000024275347 385.91799513080224C358.3333359920618 385.10549510826087 361.66666941787264 410.94299582507716 370.0000029823998 412.31799586322416C378.3333365469269 413.69299590137115 381.66666997273774 393.83049535032075 390.00000353726483 392.5179953139077C398.3333371017919 391.2054952774947 401.66667052760283 405.20549566590023 410.0000040921299 406.01799568844166C418.333337656657 406.83049571098303 421.6666710824679 394.9804953822255 430.00000464699497 396.4179954221064C438.3333382115221 397.85549546198735 441.6666716373329 415.5429959526961 450.00000520186006 412.9179958798701C458.3333387663872 410.29299580704406 461.666672192198 384.6929950968168 470.00000575672516 383.8179950725414C478.3333393212523 382.9429950482661 481.6666727470631 408.28049575121076 490.0000063115902 408.7179957633484C498.3333398761173 409.1554957754861 505.8333400841917 390.66799526258274 510.00000686645524 385.91799513080224 "
            transform="rotate(30, 400, 400)"></path>
        <path
            d="M301.00000068664554 409.7361979560621C304.75000079068275 404.6736978156119 311.5000009779497 384.423697253811 319.00000118602406 385.43619728190106C326.5000013940985 386.4486973099911 329.5000014773283 414.2024480799704 337.00000168540265 414.59619809089435C344.5000018934771 414.98994810181824 347.5000019767068 388.05744735462304 355.00000218478124 387.3261973343358C362.50000239285566 386.59494731404857 365.5000024760854 409.84869795918326 373.00000268415977 411.0861979935155C380.5000028922342 412.3236980278478 383.50000297546393 394.4474475319024 391.00000318353835 393.2661974991307C398.5000033916127 392.084947466359 401.5000034748425 404.68494781592403 409.00000368291694 405.41619783621127C416.5000038909913 406.1474478564985 419.5000039742211 395.4824475606167 427.00000418229547 396.7761975965095C434.5000043903699 398.0699476324024 437.50000447359963 413.9886980740403 445.00000468167406 411.6261980084969C452.5000048897485 409.2636979429534 455.5000049729782 386.22369730374885 463.00000518105264 385.43619728190106C470.50000538912707 384.6486972600532 473.5000054723568 407.45244789270345 481.0000056804312 407.84619790362734C488.5000058885056 408.2399479145513 495.25000607577255 391.6011974529382 499.0000061798097 387.3261973343358 "
            transform="rotate(27, 400, 400)"></path>
        <path
            d="M311.999992980957 408.6543962758177C315.3333264067679 404.15439615097307 321.3333265732274 386.1543956515945 327.9999934248491 387.0543956765634C334.6666602764708 387.95439570153235 337.3333270171195 412.6243963859584 343.99999386874117 412.9743963956685C350.66666072036287 413.3243964053787 353.33332746101155 389.3843957412052 359.99999431263325 388.7343957231721C366.66666116425495 388.08439570513895 369.3333279049036 408.754396278592 375.99999475652527 409.8543963091096C382.66666160814697 410.9543963396272 385.33332834879565 395.06439589878687 391.99999520041735 394.0143958696565C398.66666205203904 392.96439584052604 401.3333287926877 404.16439615125046 407.9999956443094 404.8143961692836C414.66666249593106 405.4643961873167 417.33332923657974 395.98439592431066 423.99999608820144 397.1343959562154C430.66666293982314 398.28439598812014 433.3333296804718 412.4343963806872 439.9999965320935 410.33439632242636C446.6666633837152 408.2343962641655 449.3333301243639 387.7543956959837 455.9999969759856 387.0543956765634C462.6666638276073 386.35439565714313 465.333330568256 406.62439621949886 471.9999974198777 406.97439622920905C478.6666642714993 407.3243962389192 484.66666443795884 392.5343958285964 487.9999978637697 388.7343957231721 "
            transform="rotate(24, 400, 400)"></path>
        <path
            d="M322.9999929046631 407.5725974565962C325.9166596522476 403.63509734735715 331.1666597978997 387.88509691040093 336.99999329306866 388.6725969322487C342.8333267882376 389.4600969540965 345.1666601863052 411.04634755296934 350.99999368147417 411.3525975614657C356.8333271766432 411.65884756996206 359.1666605747108 390.7113469888103 364.9999940698798 390.1425969730313C370.83332756504876 389.57384695725233 373.1666609631163 407.66009745902375 378.9999944582853 408.6225974857266C384.8333279534543 409.5850975124295 387.1666613515219 395.6813471266943 392.99999484669087 394.76259710120513C398.83332834185984 393.84384707571604 401.1666617399274 403.6438473475999 406.99999523509643 404.2125973633789C412.8333287302654 404.78134737915786 415.166662128333 396.48634714902755 420.99999562350195 397.49259717694423C426.8333291186709 398.49884720486085 429.16666251673854 410.880097548357 434.9999960119075 409.0425974973788C440.8333295070765 407.20509744640054 443.1666629051441 389.28509694924145 448.9999964003131 388.6725969322487C454.83332989548205 388.060096915256 457.1666632935496 405.7963474073173 462.9999967887186 406.10259741581365C468.83333028388756 406.40884742431 474.08333042953967 393.46759706527763 476.99999717712416 390.1425969730313 "
            transform="rotate(21, 400, 400)"></path>
        <path
            d="M333.99999282836916 406.4907976837004C336.4999928977273 403.11579759006696 340.9999930225719 389.615797215533 345.9999931612882 390.2907972342597C350.99999330000446 390.9657972529864 352.999993355491 409.46829776630597 357.9999934942073 409.73079777358856C362.9999936329235 409.99329778087116 364.99999368841003 392.03829728274104 369.9999938271263 391.5507972692162C374.9999939658426 391.0632972556914 376.99999402132903 406.56579768578115 381.99999416004533 407.39079770866937C386.99999429876164 408.21579773155753 388.9999943542481 396.2982974009273 393.99999449296433 395.5107973790795C398.99999463168064 394.7232973572317 400.99999468716715 403.123297590275 405.9999948258834 403.6107976037998C410.9999949645997 404.0982976173247 412.9999950200862 396.9882974200701 417.99999515880245 397.8507974439987C422.9999952975187 398.71329746792725 424.99999535300526 409.3257977623525 429.9999954917215 407.75079771865694C434.99999563043775 406.1757976749613 436.9999956859243 390.81579724882494 441.99999582464056 390.2907972342597C446.9999959633568 389.7657972196945 448.9999960188433 404.96829764146133 453.9999961575596 405.23079764874393C458.99999629627587 405.4932976560265 463.4999964211205 394.40079734828447 465.9999964904786 391.5507972692162 "
            transform="rotate(18, 400, 400)"></path>
        <path
            d="M344.99999656677244 405.40899791080466C347.08332995790425 402.5964978327767 350.83333006194147 391.34649752066514 354.99999684420504 391.9089975362707C359.16666362646856 392.47149755187627 360.833330339374 407.8902479796426 364.99999712163753 408.1089979857114C369.1666639039011 408.32774799178026 370.8333306168065 393.36524757667183 374.9999973990701 392.95899756540115C379.16666418133366 392.5527475541304 380.83333089423905 405.4714979125386 384.99999767650263 406.1589979316121C389.16666445876615 406.84649795068555 390.8333311716716 396.91524767516034 394.9999979539351 396.25899765695385C399.1666647361987 395.60274763874736 400.83333144910415 402.6027478329501 404.9999982313677 403.0089978442208C409.16666501363125 403.41524785549154 410.8333317265367 397.49024769111276 414.9999985088002 398.2089977110532C419.1666652910638 398.9277477309937 420.8333320039692 407.7714979763481 424.99999878623277 406.45899793993505C429.16666556849634 405.146497903522 430.83333228140174 392.34649754840837 434.9999990636653 391.9089975362707C439.1666658459289 391.47149752413304 440.8333325588343 404.1402478756054 444.9999993410978 404.3589978816742C449.1666661233614 404.57774788774304 452.9166662273986 395.33399763129137 454.99999961853035 392.95899756540115 "
            transform="rotate(15, 400, 400)"></path>
        <path
            d="M355.9999964904785 404.32719813790885C357.66666320338396 402.07719807548654 360.6666632866137 393.07719782579727 363.99999671242455 393.5271978382817C367.3333301382354 393.9771978507662 368.66666350855974 406.3121981929792 371.9999969343706 406.4871981978343C375.33333036018144 406.66219820268935 376.6666637305058 394.6921978706026 379.9999971563166 394.367197861586C383.3333305821275 394.0421978525695 384.6666639524518 404.377198139296 387.9999973782626 404.9271981545548C391.3333308040735 405.47719816981356 392.66666417439785 397.53219794939344 395.99999760020864 397.00719793482824C399.33333102601955 396.48219792026305 400.6666643963439 402.08219807562523 403.9999978221547 402.4071980846418C407.33333124796553 402.7321980936583 408.6666646182899 397.99219796215533 411.9999980441007 398.5671979781077C415.33333146991157 399.1421979940601 416.6666648402359 406.2171981903436 419.99999826604676 405.16719816121315C423.3333316918576 404.11719813208276 424.66666506218195 393.87719784799185 427.9999984879928 393.5271978382817C431.33333191380365 393.1771978285716 432.666665284128 403.31219810974943 435.99999870993884 403.4871981146045C439.33333213574963 403.66219811945956 442.3333322189794 396.2671979142982 443.9999989318849 394.367197861586 "
            transform="rotate(12, 400, 400)"></path>
        <path
            d="M366.9999964141846 403.24539741133873C368.2499964488636 401.557897364522 370.499996511286 394.80789717725503 372.9999965806441 395.14539718661837C375.49999665000223 395.4828971959817 376.49999667774546 404.73414745264154 378.99999674710364 404.86539745628284C381.49999681646176 404.99664745992413 382.49999684420504 396.01914721085905 384.9999969135631 395.77539720409663C387.4999969829213 395.5316471973342 388.4999970106645 403.2828974123791 390.9999970800227 403.6953974238232C393.4999971493808 404.1078974352673 394.49999717712404 398.1491472699522 396.99999724648217 397.75539725902826C399.49999731584035 397.36164724810436 400.4999973435836 401.561647364626 402.9999974129417 401.80539737138844C405.4999974822998 402.04914737815085 406.4999975100431 398.4941472795236 408.9999975794012 398.9253972914879C411.49999764875935 399.3566473034522 412.49999767650263 404.6628974506648 414.99999774586075 403.875397428817C417.4999978152189 403.0878974069692 418.49999784296216 395.40789719390096 420.9999979123203 395.14539718661837C423.4999979816784 394.88289717933577 424.4999980094217 402.48414739021916 426.9999980787798 402.61539739386046C429.49999814813793 402.74664739750176 431.74999821056025 397.2003972436308 432.99999824523934 395.77539720409663 "
            transform="rotate(9, 400, 400)"></path>
        <path
            d="M378.0000001525879 402.16359954579156C378.8333335090406 401.0385995145804 380.3333335506555 396.5385993897358 382.0000002635609 396.763599395978C383.66666697646633 396.98859940222025 384.3333336616285 403.15609957332674 386.0000003745339 403.2435995757543C387.66666708743935 403.3310995781818 388.3333337726015 397.34609941213847 390.0000004855069 397.1835994076302C391.66666719841237 397.0210994031219 392.33333388357454 402.1885995464852 394.00000059647994 402.4635995541146C395.6666673093854 402.73859956174397 396.33333399454756 398.7660994515339 398.00000070745295 398.5035994442513C399.6666674203584 398.2410994369687 400.3333341055206 401.0410995146498 402.000000818426 401.20359951915805C403.6666675313314 401.3660995236663 404.33333421649354 398.99609945791485 406.000000929399 399.28359946589103C407.66666764230445 399.5710994738672 408.33333432746656 403.108599572009 410.000001040372 402.58359955744373C411.66666775327747 402.05859954287854 412.3333344384396 396.9385994008331 414.00000115134503 396.763599395978C415.6666678642505 396.58859939112295 416.3333345494126 401.6560995317119 418.00000126231805 401.74359953413943C419.66666797522345 401.83109953656697 421.16666801683834 398.13359943398626 422.00000137329107 397.1835994076302 "
            transform="rotate(6, 400, 400)"></path>
        <path
            d="M389.00000007629393 401.0817978655472C389.4166667545203 400.5192978499416 390.1666667753277 398.26929778751924 391.00000013178044 398.38179779064035C391.83333348823317 398.49429779376146 392.1666668308143 401.57804787931474 393.00000018726695 401.6217978805285C393.8333335437197 401.66554788174227 394.16666688630073 398.6730477987206 395.00000024275346 398.59179779646644C395.8333335992062 398.5105477942123 396.1666669417873 401.09429786589396 397.00000029823997 401.23179786970866C397.8333336546927 401.36929787352335 398.16666699727375 399.3830478184183 399.0000003537265 399.251797814777C399.8333337101792 399.1205478111357 400.16666705276026 400.52054784997625 401.000000409213 400.6017978522304C401.8333337656657 400.6830478544845 402.16666710824677 399.4980478216088 403.0000004646995 399.6417978255969C403.8333338211522 399.78554782958497 404.1666671637333 401.55429787865586 405.000000520186 401.29179787137326C405.83333387663873 401.0292978640906 406.1666672192198 398.4692977930679 407.0000005756725 398.38179779064035C407.83333393212524 398.2942977882128 408.1666672747063 400.8280478585073 409.000000631159 400.8717978597211C409.8333339876117 400.91554786093485 410.5833340084192 399.0667978096445 411.00000068664554 398.59179779646644 "
            transform="rotate(3, 400, 400)"></path>
    </g>
</svg>